# xmcd
#
# Track frame offsets:
# 150
# 15487
# 29342
# 43380
# 56802
# 70235
# 83847
# 99900
# 113242
# 125627
# 141237
# 158142
# 173795
# 186585
#
# Disc length: 2683 seconds
#
#
# Revision: 0
# Processed by: cddbd v1.5.2PL0 Copyright (c) Steve Scherf et al.
# Submitted via: FreeRIP 2.945 
#
DISCID=c60a790e
DTITLE=70 Anos da Música Sertaneja - Vol. 03 - DIVERSOS - 70 Anos da Música Sertaneja  - Vol. 03 
DYEAR=1900
DGENRE=Sertanejas
TTITLE0=Rio de Lágrimas - Tião Carreiro e Pardinho
TTITLE1=Chico Mineiro - Tonico e Tinoco
TTITLE2=Cavalo Preto - Palmeira e Luizinho
TTITLE3=A Enxada e a caneta - Zico e Zeca
TTITLE4=Anel de Noivado - Lourenço e Lourival
TTITLE5=Caçando e Pescando - Cacique e Pajé
TTITLE6=Mulher Maravilha - Duduca e Dalvan
TTITLE7=Bebendo e Chorando - Trio Parada Dura
TTITLE8=Linda Matogrossense - Mário Zan
TTITLE9=Lembrança - Zé Fortuna e Pitangueira
TTITLE10=Nelore Valente - Dino Franco e Mouraí
TTITLE11=Meu Martírio - Miltinho Rodrigues
TTITLE12=Não Beba Mais Não - Dua Ciriema
TTITLE13=Filho Adotiva - Jacó e Jacozinho
EXTD=70 Anos da Música Sertaneja - Vol. 03 - DIVERSOS
EXTT0=
EXTT1=
EXTT2=
EXTT3=
EXTT4=
EXTT5=
EXTT6=
EXTT7=
EXTT8=
EXTT9=
EXTT10=
EXTT11=
EXTT12=
EXTT13=
PLAYORDER=
